<svg xmlns="http://www.w3.org/2000/svg" viewBox="0 0 1024 1024" role="img" aria-labelledby="title">
  <title id="title">Flexible Reminder pulse logo</title>
  <defs>
    <linearGradient id="bg" x1="140" y1="80" x2="900" y2="980" gradientUnits="userSpaceOnUse">
      <stop offset="0" stop-color="#3FA2FF" />
      <stop offset="1" stop-color="#0055CE" />
    </linearGradient>
    <radialGradient id="glow" cx="512" cy="430" r="520" gradientUnits="userSpaceOnUse">
      <stop offset="0" stop-color="#FFFFFF" stop-opacity=".22" />
      <stop offset="1" stop-color="#FFFFFF" stop-opacity="0" />
    </radialGradient>
  </defs>
  <rect width="1024" height="1024" rx="224" fill="url(#bg)" />
  <rect width="1024" height="1024" rx="224" fill="url(#glow)" />
  <path d="M258 306c-52 56-82 128-82 206s30 150 82 206" fill="none" stroke="#FFFFFF" stroke-opacity=".45" stroke-width="58" stroke-linecap="round" />
  <path d="M766 306c52 56 82 128 82 206s-30 150-82 206" fill="none" stroke="#FFFFFF" stroke-opacity=".45" stroke-width="58" stroke-linecap="round" />
  <path d="M362 384c-32 34-50 80-50 128s18 94 50 128" fill="none" stroke="#FFFFFF" stroke-opacity=".8" stroke-width="62" stroke-linecap="round" />
  <path d="M662 384c32 34 50 80 50 128s-18 94-50 128" fill="none" stroke="#FFFFFF" stroke-opacity=".8" stroke-width="62" stroke-linecap="round" />
  <circle cx="512" cy="512" r="148" fill="#FFFFFF" />
  <circle cx="512" cy="512" r="58" fill="#0055CE" />
</svg>
